<?xml version="1.0" encoding="utf-8"?>
<!-- Generator: Adobe Illustrator 22.0.1, SVG Export Plug-In . SVG Version: 6.00 Build 0)  -->
<svg version="1.1" id="Layer_1" xmlns="http://www.w3.org/2000/svg" xmlns:xlink="http://www.w3.org/1999/xlink" x="0px" y="0px"
	 viewBox="0 0 512 512" style="enable-background:new 0 0 512 512;" xml:space="preserve">
<style type="text/css">
	.st0{fill:#C6E9FA;}
	.st1{fill:#2B3236;}
	.st2{fill:#FFFFFF;}
	.st3{fill:#F15D5E;}
</style>
<g id="XMLID_1_">
	<path class="st0" d="M270.9,400.7h-29.8c-55.6,0-100.6-45.1-100.6-100.6V140.3c0-55.6,45.1-100.6,100.6-100.6h29.8
		c55.6,0,100.6,45.1,100.6,100.6v159.7C371.5,355.6,326.5,400.7,270.9,400.7z"/>
</g>
<g id="XMLID_22_">
	<path class="st0" d="M256,416.4L256,416.4c-38.8,0-74.4,13.7-102.2,36.6c17.4,30.3,50,50.7,87.3,50.7h29.8
		c37.4,0,70-20.4,87.3-50.7C330.4,430.1,294.8,416.4,256,416.4z"/>
</g>
<circle id="XMLID_6_" class="st1" cx="196.3" cy="239.8" r="17.8"/>
<g id="XMLID_7_">
	<path class="st2" d="M178.1,212.2h42.1c7.1,0,12.9-5.8,12.9-12.9l0,0c0-7.1-5.8-12.9-12.9-12.9h-42.1c-7.1,0-12.9,5.8-12.9,12.9
		l0,0C165.2,206.4,171,212.2,178.1,212.2z"/>
</g>
<circle id="XMLID_27_" class="st1" cx="315.7" cy="239.8" r="17.8"/>
<g id="XMLID_24_">
	<path class="st2" d="M333.9,212.2h-42.1c-7.1,0-12.9-5.8-12.9-12.9l0,0c0-7.1,5.8-12.9,12.9-12.9h42.1c7.1,0,12.9,5.8,12.9,12.9
		l0,0C346.8,206.4,341,212.2,333.9,212.2z"/>
</g>
<g id="XMLID_23_">
	<g>
		<path class="st2" d="M387.6,274.3c-4.6,3.2-10.1,5-16.1,5v20.8c0,6.1-0.6,12-1.6,17.8c-14.3,10.5-36.9,14.2-57.4,6.8
			c-6.8-2.4-11.9-8.4-13-15.5c-3.2-20.2-17.5-26-43.5-17.4c-26-8.6-40.3-2.8-43.5,17.4c-1.1,7.1-6.2,13.1-13,15.5
			c-20.5,7.3-43.1,3.6-57.4-6.8c-1-5.8-1.6-11.7-1.6-17.8v-20.8c-6,0-11.5-1.9-16.1-5c-9.7,28-6.6,51.2,14,68
			c-3.6,32,5,55.7,35.7,64.8c2.1,26,12.2,44.8,47.4,40.5c0,0.2,0.1,0.3,0.1,0.5c7.2,37.5,61.8,37.5,69,0c0-0.2,0.1-0.3,0.1-0.5
			c35.2,4.3,45.2-14.5,47.4-40.5c30.6-9.1,39.3-32.8,35.7-64.8C394.2,325.5,397.4,302.3,387.6,274.3z"/>
	</g>
</g>
<g id="XMLID_12_">
	<path class="st2" d="M394.1,147.4c2-4.6,3.1-9.6,3.1-15c0-14.3-7.9-26.7-19.6-33.2c1.2-3.7,1.9-7.7,1.9-11.9
		c0-20.9-17-37.9-37.9-37.9c-2.4,0-4.8,0.3-7.1,0.7c-6.1-12.7-19.1-21.4-34.1-21.4c-4,0-7.8,0.6-11.4,1.8
		c-8.5-8.4-20.1-13.5-33-13.5c-12.9,0-24.5,5.2-33,13.5c-3.6-1.1-7.5-1.8-11.4-1.8c-15,0-28,8.8-34.1,21.4c-2.3-0.4-4.7-0.7-7.1-0.7
		c-20.9,0-37.9,17-37.9,37.9c0,4.1,0.7,8.1,1.9,11.9c-11.7,6.5-19.6,18.9-19.6,33.2c0,5.3,1.1,10.4,3.1,15
		c-8,10.9-12.8,24.4-12.8,39c0,13.7,4.2,26.5,11.4,37c5-7.9,13.9-13.2,24-13.2v-69.9c0-55.6,45.1-100.6,100.6-100.6H256h14.9
		c55.6,0,100.6,45.1,100.6,100.6v69.9c10.1,0,18.9,5.3,24,13.2c7.2-10.6,11.4-23.3,11.4-37C406.9,171.8,402.2,158.3,394.1,147.4z"/>
</g>
<g id="XMLID_15_">
	<path class="st3" d="M283.9,279.3c0,15.4-12.5,18.3-27.9,18.3c-15.4,0-27.9-2.9-27.9-18.3s12.5-55,27.9-55
		C271.4,224.3,283.9,263.9,283.9,279.3z"/>
</g>
<path id="XMLID_16_" class="st1" d="M277,330.4L277,330.4l-47.4,0v0c0,13.1,10.6,23.7,23.7,23.7l0,0
	C266.4,354.1,277,343.5,277,330.4z"/>
<g id="XMLID_29_">
	<path class="st0" d="M371.5,279.4L371.5,279.4l0-69.2h0c15.7,0,28.4,12.7,28.4,28.4V251C399.9,266.7,387.2,279.4,371.5,279.4z"/>
</g>
<g id="XMLID_5_">
	<path class="st0" d="M140.5,279.4L140.5,279.4v-69.2l0,0c-15.7,0-28.4,12.7-28.4,28.4V251C112.1,266.7,124.8,279.4,140.5,279.4z"/>
</g>
</svg>
