<?xml version="1.0" encoding="utf-8"?>
<!-- Generator: Adobe Illustrator 22.0.1, SVG Export Plug-In . SVG Version: 6.00 Build 0)  -->
<svg version="1.1" id="Layer_1" xmlns="http://www.w3.org/2000/svg" xmlns:xlink="http://www.w3.org/1999/xlink" x="0px" y="0px"
	 viewBox="0 0 512 512" style="enable-background:new 0 0 512 512;" xml:space="preserve">
<style type="text/css">
	.st0{fill:#FFFFFF;}
	.st1{fill:#C6E9FA;}
</style>
<g>
	<path class="st0" d="M244.8,25.5c7.5,0,15,0,22.5,0c0.5,0.1,1.1,0.3,1.6,0.3c14.3,0.5,28.4,2.1,42.4,4.9
		c16.6,3.3,32.6,8.4,47.9,15.8c15.1,7.3,28.9,16.5,40.8,28.4c7.5,7.5,9.5,16.7,6.7,26.9c-0.3,1.1-0.2,1.9,0.5,2.9
		c4.8,7,8.8,14.3,12.2,22c7.6,17.2,12,35.3,13.6,54c1,11.5,1,22.9,0.2,34.4c-0.8,11-2.4,21.9-5.2,32.6c-0.5,1.9,0,2.7,1.7,3.6
		c16,8.5,29.5,20,40.5,34.4c13.5,17.7,21.8,37.6,24.6,59.7c0.4,3.2,0.7,6.4,1.1,9.6c0,4.1,0,8.2,0,12.4c-0.2,2-0.5,4.1-0.7,6.1
		c-0.9,11-3.3,21.6-7.3,31.9c-12.8,32.7-35.2,56.4-67.3,70.8c-10.8,4.8-22.1,7.9-33.8,9.3c-3.1,0.4-6.2,0.7-9.3,1.1
		c-4.4,0-8.7,0-13.1,0c-0.5-0.1-1-0.3-1.4-0.3c-8.2,0-16.5-7.5-15.6-18c0.7-8,1.1-16.1,1.6-24.1c0.4-6.2,0.8-12.3,1.2-18.5
		c0.6-8.6,1.2-17.2,1.8-25.8c0.6-8,1.1-16.1,1.6-24.1c0.6-8.2,1.2-16.3,1.7-24.5c0.5-8,1-16.1,1.6-24.1c0.6-8.4,1.2-16.8,1.8-25.2
		c0.6-8.2,1.1-16.4,1.6-24.6c0.6-8.2,1.3-16.3,1.7-24.5c0.5-9.4,7.5-16.4,16.9-16c4,0.1,7.9,0.8,11.9,1.3c2,0.3,4,0.7,6,1
		c3.3-15.7,5-31.2,4.4-46.9c-0.4-10.5-1.7-20.8-4.2-31c-3.4-14.1-8.9-27.3-17.2-39.3c-0.4-0.5-1.1-1.2-1.6-1.2
		c-6.5-0.7-11.9-3.4-16.6-7.8c-7.7-7.3-16.5-13.1-26-17.7C316,85.9,295.3,81.8,274,80.3c-12.8-0.9-25.7-0.8-38.5,0.2
		c-10.1,0.8-20.2,2.3-30.1,4.6c-21.3,5.1-40.6,13.9-56.6,29.2c-4,3.8-9,5.7-14.5,6.4c-0.7,0.1-1.5,0.6-1.9,1.1c-2,3.1-4,6.2-5.8,9.4
		c-11.2,20.4-15.6,42.5-15.8,65.6c-0.1,8.1,0.6,16.2,1.4,24.3c0.6,6,1.9,12,2.9,18.2c1-0.2,1.6-0.3,2.3-0.4c5.3-0.7,10.6-1.8,15.9-2
		c9.3-0.4,16.3,6.7,16.7,16c0.2,6.3,0.8,12.6,1.2,18.9c0.6,8.2,1.2,16.4,1.7,24.6c0.4,6.3,0.8,12.7,1.3,19
		c0.6,8.2,1.2,16.4,1.7,24.6c0.4,6.3,0.8,12.7,1.3,19c0.6,8.3,1.2,16.7,1.7,25c0.4,6.2,0.8,12.4,1.3,18.7c0.6,8.4,1.2,16.8,1.7,25.2
		c0.4,6.2,0.8,12.3,1.2,18.5c0.5,7.7,1.2,15.4,1.5,23.2c0.3,7.9-5,14.5-12.8,16.1c-1.4,0.3-2.8,0.5-4.2,0.7c-4.4,0-8.7,0-13.1,0
		c-3.1-0.4-6.2-0.7-9.3-1.1c-12.6-1.5-24.7-5-36.2-10.3c-20.9-9.7-37.9-24.1-51-43c-11.3-16.5-18.3-34.7-20.9-54.5
		c-0.4-3.3-0.7-6.5-1.1-9.8c0-4.2,0-8.5,0-12.7c0.2-2,0.5-3.9,0.7-5.9c1.2-13.6,4.7-26.7,10.4-39.1c11.9-25.8,30.4-45.5,55.5-58.9
		c1.2-0.7,1.6-1.2,1.3-2.7c-3.1-13-5.1-26.2-5.6-39.5c-0.7-15.9,0.1-31.8,3.3-47.5c4.1-20.3,11.4-39.2,23-56.5
		c0.8-1.2,0.9-2.1,0.5-3.4c-2.3-8.3-1.2-16.1,3.9-23.1c2.2-3,5-5.5,7.8-8c17-15.2,36.7-25.6,58.2-32.8c12.9-4.3,26.1-7.4,39.6-9.1
		c7.3-0.9,14.6-1.5,21.9-2.2C239.3,26,242,25.8,244.8,25.5z"/>
</g>
<g>
	<path class="st1" d="M320.5,475.6c-9.7,0-17.1-8.6-16-18.3c0.7-6.3,0.9-12.6,1.3-18.9c0.6-8.4,1.2-16.8,1.7-25.2
		c0.4-6.3,0.8-12.7,1.3-19c0.6-8.3,1.2-16.5,1.7-24.8c0.4-6.3,0.8-12.6,1.3-18.9c0.6-8.3,1.2-16.5,1.7-24.8
		c0.4-6.2,0.8-12.3,1.3-18.5c0.6-8.5,1.2-16.9,1.8-25.4c0.4-6.2,0.9-12.4,1.2-18.7c0.3-8.1,6.7-15.1,14.5-15.8
		c8.5-0.8,16,4.7,17.6,12.9c0.3,1.7,0.3,3.5,0.2,5.2c-0.5,8-1,16.1-1.6,24.1c-0.6,8.1-1.2,16.3-1.7,24.4c-0.4,6.2-0.8,12.4-1.3,18.7
		c-0.6,8.4-1.2,16.8-1.7,25.2c-0.4,6.4-0.8,12.8-1.3,19.2c-0.6,8.2-1.2,16.4-1.7,24.6c-0.4,6.3-0.8,12.6-1.3,18.9
		c-0.6,8.3-1.2,16.5-1.7,24.8c-0.3,4.7-0.7,9.3-0.9,14C336.6,468.6,329.6,475.6,320.5,475.6z"/>
</g>
<g>
	<path class="st1" d="M177.9,247.4c8.8,0,15.9,7,16.3,15.7c0.4,8.2,1.1,16.4,1.7,24.6c0.4,6.3,0.8,12.6,1.3,18.9
		c0.6,8.3,1.2,16.5,1.7,24.8c0.4,6.4,0.8,12.8,1.3,19.2c0.6,8.2,1.1,16.3,1.7,24.5c0.4,6.3,0.9,12.6,1.3,18.9
		c0.6,8.4,1.2,16.8,1.7,25.2c0.4,6.2,0.8,12.3,1.2,18.5c0.5,6.8,1,13.6,1.4,20.3c0.5,8.3-4.9,16.3-14.4,17.6
		c-8.2,1.1-16.6-4.9-17.7-13.1c-0.7-4.7-0.8-9.4-1.2-14.2c-0.6-8.6-1.2-17.2-1.8-25.8c-0.4-6-0.8-12.1-1.2-18.1
		c-0.6-8.5-1.2-17-1.8-25.6c-0.4-6-0.8-12.1-1.2-18.1c-0.6-8.5-1.2-17-1.8-25.6c-0.4-6-0.8-12.1-1.2-18.1
		c-0.6-8.6-1.2-17.2-1.8-25.8c-0.4-6-0.8-12.1-1.2-18.1c-0.2-2.6-0.3-5.2-0.5-7.8C160.8,255.7,168.2,247.3,177.9,247.4z"/>
</g>
</svg>
