<?xml version="1.0" encoding="utf-8"?>
<!-- Generator: Adobe Illustrator 22.0.1, SVG Export Plug-In . SVG Version: 6.00 Build 0)  -->
<svg version="1.1" id="Layer_1" xmlns="http://www.w3.org/2000/svg" xmlns:xlink="http://www.w3.org/1999/xlink" x="0px" y="0px"
	 viewBox="0 0 67.2 86" style="enable-background:new 0 0 67.2 86;" xml:space="preserve">
<style type="text/css">
	.st0{fill:#C6E9FA;}
	.st1{fill:#F15D5E;}
	.st2{fill:#FFFFFF;}
</style>
<g>
	<g>
		<path d="M322.3,32.8c1.9,0,1.9-3,0-3S320.4,32.8,322.3,32.8L322.3,32.8z"/>
	</g>
</g>
<path class="st0" d="M63.7,18.8c1.9,2.8,2.7,6.7,2,11.2c-0.6,4.4-2.5,9.4-5.4,14.4c6.6,11.4,7.4,21.8,2,27.2
	c-2.4,2.4-5.7,3.5-9.7,3.5c-5,0-11.1-1.9-17.5-5.6c-6.4,3.7-12.4,5.6-17.5,5.6c-4,0-7.3-1.2-9.7-3.5c-5.4-5.4-4.6-15.7,2-27.2
	c-1.3-2.3-2.4-4.5-3.3-6.7c0,0-0.1,0-0.1,0c-3.1,0-5.6-2.5-5.6-5.6c0-2.3,1.4-4.3,3.4-5.2c0-4,1.2-7.4,3.5-9.7
	c5.4-5.4,15.7-4.6,27.2,2c6.7-3.9,13.2-5.8,18.5-5.5c1-1.7,2.8-2.9,4.9-2.9c3.1,0,5.6,2.5,5.6,5.6C64.2,17.3,64.1,18.1,63.7,18.8z
	 M62.7,29.6c0.5-3.3,0.1-6.2-1.1-8.3c-0.9,0.5-1.9,0.8-2.9,0.8c-3,0-5.4-2.3-5.6-5.2c-4.2-0.1-9.3,1.4-14.7,4.3
	c3.8,2.5,7.6,5.6,11.1,9.1c3.5,3.5,6.6,7.2,9.1,11.1C60.7,37.2,62.2,33.2,62.7,29.6z M61.1,16.5c0-1.4-1.1-2.5-2.5-2.5
	s-2.5,1.1-2.5,2.5c0,1.4,1.1,2.5,2.5,2.5C60,18.9,61.1,17.8,61.1,16.5z M60.2,69.3c4-4,3.3-12.5-1.7-21.9c-2.5,3.8-5.6,7.6-9.1,11.1
	c-3.5,3.5-7.2,6.6-11.1,9.1C47.8,72.7,56.2,73.4,60.2,69.3z M56.7,44.4c-2.6-4.1-5.8-8.1-9.5-11.9c-3.8-3.8-7.8-7-11.9-9.5
	c-4.1,2.6-8.1,5.8-11.9,9.5c-3.8,3.8-7,7.8-9.5,11.9c2.6,4.1,5.8,8.1,9.5,11.9c3.8,3.8,7.8,7,11.9,9.5c4.1-2.6,8.1-5.8,11.9-9.5
	C51,52.6,54.2,48.6,56.7,44.4z M21.2,30.3c3.5-3.5,7.2-6.6,11.1-9.1c-9.4-5-17.8-5.7-21.9-1.7c-1.7,1.7-2.5,4.1-2.6,7.1
	c2.6,0.4,4.7,2.8,4.7,5.5c0,1.9-1,3.7-2.5,4.7c0.6,1.5,1.3,3,2.1,4.6C14.6,37.5,17.7,33.8,21.2,30.3z M32.2,67.6
	c-3.8-2.5-7.6-5.6-11.1-9.1c-3.5-3.5-6.6-7.2-9.1-11.1c-5,9.4-5.7,17.8-1.7,21.9C14.4,73.4,22.8,72.7,32.2,67.6z M9.3,32.1
	c0-1.4-1.1-2.5-2.5-2.5c-1.4,0-2.5,1.1-2.5,2.5c0,1.4,1.1,2.5,2.5,2.5C8.2,34.6,9.3,33.5,9.3,32.1z"/>
<path class="st1" d="M58.6,14c1.4,0,2.5,1.1,2.5,2.5c0,1.4-1.1,2.5-2.5,2.5c-1.4,0-2.5-1.1-2.5-2.5C56.2,15.1,57.3,14,58.6,14z"/>
<path class="st2" d="M35.3,36.1c4.6,0,8.3,3.7,8.3,8.3c0,4.6-3.7,8.3-8.3,8.3c-4.6,0-8.3-3.7-8.3-8.3C27,39.8,30.7,36.1,35.3,36.1z
	 M40.5,44.4c0-2.9-2.3-5.2-5.2-5.2c-2.9,0-5.2,2.3-5.2,5.2s2.3,5.2,5.2,5.2C38.2,49.6,40.5,47.3,40.5,44.4z"/>
<path class="st1" d="M35.3,39.2c2.9,0,5.2,2.3,5.2,5.2s-2.3,5.2-5.2,5.2c-2.9,0-5.2-2.3-5.2-5.2C30.1,41.6,32.4,39.2,35.3,39.2z"/>
<path class="st1" d="M6.8,29.7c1.4,0,2.5,1.1,2.5,2.5c0,1.4-1.1,2.5-2.5,2.5c-1.4,0-2.5-1.1-2.5-2.5C4.4,30.8,5.5,29.7,6.8,29.7z"/>
</svg>
