<?xml version="1.0" encoding="utf-8"?>
<!-- Generator: Adobe Illustrator 22.0.1, SVG Export Plug-In . SVG Version: 6.00 Build 0)  -->
<svg version="1.1" id="Layer_1" xmlns="http://www.w3.org/2000/svg" xmlns:xlink="http://www.w3.org/1999/xlink" x="0px" y="0px"
	 viewBox="0 0 67.2 86" style="enable-background:new 0 0 67.2 86;" xml:space="preserve">
<style type="text/css">
	.st0{fill:#FFFFFF;}
</style>
<g>
	<g>
		<path d="M322.3,32.8c1.9,0,1.9-3,0-3C320.4,29.8,320.4,32.8,322.3,32.8L322.3,32.8z"/>
	</g>
</g>
<g>
	<path class="st0" d="M59.1,28.9C56.4,28.9,53.8,29,51,29c-0.1-5.3-2.4-9.1-7.2-11.5c0,0.2,0,0.3,0,0.5c0,7.1,0,14.1,0,21.2
		c0,0.3,0.1,0.5,0.4,0.6c2.8,0.8,5.6,1.8,8.1,3.3c4.7,2.8,7.6,6.8,8.6,12.2c0.2,1,0.1,2,0.1,3c-0.1,3.2-0.9,6.3-2.4,9.1
		c-1.9,3.4-4.7,5.9-8.1,7.7c-2,1-4.1,1.8-6.3,2.3c-0.3,0.1-0.4,0.2-0.4,0.5c0,2.2,0,4.4,0,6.7c0,0.1,0,0.3,0,0.5c-2.1,0-4.2,0-6.3,0
		c0-2.2,0-4.4,0-6.6c-1.7,0-3.4,0-5.1,0c0,2.2,0,4.4,0,6.6c-2.1,0-4.2,0-6.3,0c0-2.5,0-4.9,0-7.4c-6.8-1.7-12.3-5.2-16-11.3
		C8,62.7,7,58.8,6.7,54.7c2.7-0.2,5.4-0.3,8.1-0.5c0.5,7.4,4.2,12.4,11.2,14.9c0-0.2,0-0.3,0-0.5c0-8.2,0-16.4,0-24.5
		c0-0.4-0.1-0.5-0.4-0.6C23,42.8,20.4,42,18,40.7c-4.1-2.2-6.9-5.5-7.9-10.1c-0.9-4-0.8-8,1-11.8c1.4-2.9,3.4-5.1,6.1-6.9
		c2.6-1.8,5.5-3,8.6-3.7c0.3-0.1,0.3-0.2,0.3-0.5c0-2,0-4,0-6.1c0-0.1,0-0.3,0-0.5c2.1,0,4.2,0,6.3,0c0,2.1,0,4.1,0,6.2
		c1.7,0.1,3.4,0.2,5.1,0.3c0-2.2,0-4.3,0-6.5c2.1,0,4.2,0,6.3,0c0,0.1,0,0.3,0,0.4c0,2.3,0,4.6,0,6.9c0,0.3,0.1,0.4,0.4,0.5
		c3.5,1.1,6.7,2.9,9.3,5.6c2.9,3,4.7,6.5,5.3,10.6c0.2,1.1,0.2,2.3,0.3,3.4C59.2,28.6,59.1,28.7,59.1,28.9z M43.8,69
		c1.8-0.4,4.7-2.1,6.2-3.6c1.7-1.8,2.6-3.9,2.8-6.3c0.1-0.9,0.2-1.8,0-2.7c-0.3-2.1-1.4-3.8-3-5.1c-1.7-1.5-3.8-2.4-5.9-3.1
		c0,0-0.1,0-0.1,0C43.8,55.2,43.8,62.1,43.8,69z M37.5,70.2c0-0.2,0-0.4,0-0.5c0-1.9,0-3.7,0-5.6c0-5.7,0-11.4,0-17.1
		c0-0.3-0.1-0.4-0.4-0.5c-1.5-0.3-3-0.7-4.5-1.1c-0.1,0-0.1,0-0.2,0c0,8.3,0,16.6,0,24.9C34.1,70.2,35.7,70.2,37.5,70.2z M26,16.5
		c-0.1,0-0.1,0-0.2,0c-1.6,0.5-3.1,1.3-4.5,2.3c-1.6,1.2-2.8,2.7-3.4,4.6c-0.4,1.3-0.3,2.7-0.2,4.1c0.2,2.4,1.3,4.3,3.4,5.6
		c1,0.6,2,1,3,1.5c0.6,0.3,1.2,0.4,1.8,0.6C26,28.9,26,22.7,26,16.5z M32.4,15.5c0,0.2,0,0.3,0,0.5c0,2.5,0,5.1,0,7.6
		c0,4.3,0,8.6,0,12.8c0,0.3,0.1,0.4,0.4,0.5c1,0.3,2,0.6,3.1,0.9c0.5,0.1,1.1,0.2,1.6,0.4c0-0.2,0-0.4,0-0.5c0-2.2,0-4.5,0-6.7
		c0-4.9,0-9.8,0-14.7c0-0.3-0.1-0.4-0.4-0.4c-1.3-0.1-2.5-0.2-3.8-0.2C33,15.5,32.7,15.5,32.4,15.5z"/>
</g>
</svg>
