<?xml version="1.0" encoding="utf-8"?>
<!-- Generator: Adobe Illustrator 22.0.1, SVG Export Plug-In . SVG Version: 6.00 Build 0)  -->
<svg version="1.1" id="Layer_1" xmlns="http://www.w3.org/2000/svg" xmlns:xlink="http://www.w3.org/1999/xlink" x="0px" y="0px"
	 viewBox="0 0 512 512" style="enable-background:new 0 0 512 512;" xml:space="preserve">
<style type="text/css">
	.st0{fill:#FCFCFC;}
</style>
<path class="st0" d="M80.5,166.9c-1.7-1.6-2.6,0.3-3.6,1c-5.5,3.9-10.9,7.9-17.2,12.4c2.3-7.1,3.9-13.2,6.2-19.1
	c1.3-3.4,0.5-5-2.3-6.9c-5.3-3.5-10.2-7.4-16.3-11.8c7.8,0,14.4-0.2,21,0.1c2.9,0.1,4.1-0.9,4.9-3.6c1.8-6.3,4-12.5,6.3-19.7
	c2.4,7.3,4.6,13.7,6.5,20.1c0.7,2.4,1.9,3.3,4.4,3.2c5.1-0.2,10.2-0.2,15.3-0.2c1.6,0.1,3.1,0.2,4.7,0.3c0.5,1.3-0.7,1.5-1.3,1.9
	c-4.7,3.5-9.4,7.1-14.3,10.3c-2.5,1.6-2.7,3.2-1.8,5.8c2.2,6.1,4,12.3,6.3,19.5C92.4,175.3,86.5,171.1,80.5,166.9z"/>
<path class="st0" d="M98.3,382.7c-5.5-4-11-7.9-16.4-12c-1.7-1.3-3-1.4-4.7,0c-5.4,4.1-10.9,8-17.5,12.8c1.6-5.1,3-9.2,4.2-13.3
	c1-3.3,3.4-7.2,2.5-9.9c-0.9-2.8-5.2-4.4-8-6.5c-3.4-2.5-6.8-5-11.2-8.2c7.7,0,14.2-0.2,20.6,0.1c3.3,0.2,4.6-1.1,5.4-4
	c1.8-6.1,3.9-12.2,6.1-19.3c2.3,6.9,4.6,12.9,6.2,19.1c0.9,3.2,2.2,4.4,5.6,4.2c6.4-0.3,12.8-0.1,19.6,0.6
	c-3.6,2.6-7.2,5.2-10.8,7.8c-8.3,6-8.3,5.9-5.1,15.7c1.4,4.2,2.7,8.4,4,12.6C98.7,382.5,98.5,382.6,98.3,382.7z"/>
<path class="st0" d="M400.5,142.5c5.8,0,11.7-0.4,17.5,0.1c4.8,0.5,6.6-1.5,7.7-5.7c1.5-5.6,3.5-11.1,5.6-17.6
	c2.4,7.3,4.6,13.6,6.5,20c0.7,2.4,1.8,3.3,4.4,3.2c6.7-0.2,13.5-0.1,21.5-0.1c-6.4,4.6-11.7,8.7-17.3,12.4c-2.2,1.5-2.7,2.9-1.8,5.4
	c2.2,6.2,4.2,12.6,6.6,20c-6.3-4.5-11.8-8.3-17-12.4c-2.2-1.7-3.6-1.6-5.7,0c-5.2,4-10.7,7.8-16.6,11.1c2-6.3,3.9-12.7,6.2-19
	c0.9-2.5,0.4-3.7-1.7-5.2c-5.5-3.8-10.8-7.7-16.1-11.6C400.3,143,400.4,142.8,400.5,142.5z"/>
<path class="st0" d="M400.4,345.5c6.7,0,13.5-0.1,20.2,0.1c2.4,0.1,3.4-0.7,4.1-3c1.9-6.5,4.1-12.9,6.5-20.3
	c2.4,7.2,4.5,13.4,6.3,19.7c0.8,2.7,2,3.7,4.9,3.6c6.6-0.2,13.2-0.1,21.1-0.1c-6.3,4.6-11.7,8.7-17.2,12.4c-2.2,1.5-2.7,2.9-1.8,5.4
	c2.2,6.2,4.1,12.6,6.6,20.1c-6.2-4.5-11.5-8.2-16.7-12.2c-2.3-1.8-3.9-2-6.3-0.1c-5.1,4-10.4,7.7-16.3,11c2-6.3,3.9-12.7,6.2-18.9
	c0.9-2.4,0.5-3.7-1.6-5.2c-5.5-3.8-10.8-7.8-16.2-11.7C400.3,346.1,400.4,345.8,400.4,345.5z"/>
<path class="st0" d="M388.3,420.7c-5.1,3.7-10.2,7.6-15.5,11.1c-3,1.9-3.4,3.8-2.2,7c2.2,5.9,4,12.1,6.2,19.1
	c-6.2-4.5-11.7-8.3-17-12.4c-2.1-1.6-3.5-1.9-5.7-0.1c-4.5,3.6-9.2,6.8-13.9,10.2c-0.8,0.6-1.5,1.6-2.9,1.2c2.1-6.4,4-12.8,6.2-19
	c0.9-2.6,0.4-3.9-1.8-5.4c-5.5-3.7-10.8-7.7-17.1-12.3c7.7,0,14.3-0.1,20.9,0.1c2.8,0.1,4.1-0.7,4.9-3.5c1.8-6.4,4.1-12.6,6.4-19.9
	c2.4,7.3,4.7,13.7,6.5,20.2c0.7,2.5,1.9,3.2,4.4,3.1c6.7-0.1,13.3-0.1,20-0.1C388,420.2,388.1,420.4,388.3,420.7z"/>
<path class="st0" d="M134.5,456.4c2-6.3,4-12.6,6.2-18.8c0.8-2.3,0.5-3.7-1.6-5.1c-5.6-3.8-10.9-7.9-17.4-12.5
	c7.2,0,13.3-0.3,19.3,0.1c4.4,0.3,6.1-1.3,7.1-5.3c1.5-5.8,3.6-11.4,5.8-18.1c2.3,7.1,4.6,13.4,6.4,19.8c0.8,2.7,1.9,3.7,4.8,3.6
	c6.6-0.2,13.2-0.1,20.9-0.1c-6.2,4.5-11.5,8.5-16.9,12.2c-2.3,1.6-2.9,3-1.9,5.7c2,5.2,3.5,10.6,5.2,16c0.3,1.1,1.1,2.1,0.4,3.3
	c-5.6-4.1-11.2-8.1-16.7-12.3c-1.8-1.4-3-1.2-4.7,0.1c-5.4,4.1-10.9,7.9-16.3,11.9C135,456.8,134.7,456.6,134.5,456.4z"/>
<path class="st0" d="M458.6,221.1c2.4,7.4,4.6,13.8,6.6,20.3c0.6,2.1,1.6,2.9,3.9,2.8c6.8-0.2,13.5-0.1,21.5-0.1
	c-6,4.4-10.9,8.3-16.1,11.7c-2.9,1.9-3.6,3.7-2.3,7c1.9,4.8,3.3,9.9,5,14.8c0.3,0.8,0.9,1.8-0.1,2.4c-0.8,0.5-1.4-0.4-2.1-0.8
	c-3.6-2.6-7.2-5.2-10.8-7.8c-5.6-4-5.6-4-11-0.1c-4.5,3.3-9,6.5-14.4,10.4c2.4-7.2,4.3-13.4,6.4-19.5c1-2.7,0.7-4.4-1.9-6.1
	c-5.4-3.6-10.5-7.6-16.7-12.1c7.5,0,13.9-0.2,20.2,0.1c3.4,0.2,4.8-1.1,5.6-4.2c1.3-5,3.1-9.9,4.7-14.9
	C457.4,224.1,457.9,223,458.6,221.1z"/>
<path class="st0" d="M240.6,40.9c7.2,0.5,7.2,0.5,9.4-6.2c1.7-5.2,3.4-10.3,5.4-16.6c2.4,6.9,4.4,12.6,6.4,18.4
	c0.1,3.9,2.1,4.9,5.8,4.7c6.2-0.3,12.4-0.1,19.9-0.1c-6.3,4.6-11.5,8.5-16.9,12.2c-2.2,1.5-2.8,2.8-1.8,5.4c1.9,5,3.4,10.1,5,15.2
	c0.3,1,1.2,2.2,0.3,2.9c-1.2,1-2.1-0.5-3-1.1c-4.5-3.2-9-6.3-13.3-9.7c-1.8-1.4-3-1.3-4.7,0.1c-4.2,3.3-8.6,6.3-13,9.5
	c-1.1,0.8-2.1,2.1-4,1.4c2-6,3.8-12.1,6-18c1-2.7,0.6-4.2-1.8-5.8c-5.4-3.6-10.6-7.6-15.8-12.3C229.8,40.9,235.2,40.9,240.6,40.9z"
	/>
<path class="st0" d="M37.4,244c1.5,0.1,3.1,0,4.6,0.2c2.3,0.2,3.4-0.7,3.4-3c2.2-6.3,4.4-12.6,7-20.1c2.4,7.3,4.5,13.4,6.3,19.5
	c0.8,2.7,2,3.7,4.9,3.6c6.5-0.2,13-0.1,20.8-0.1c-5.7,4.2-10.3,7.9-15.3,11c-3.5,2.2-4.6,4.3-2.9,8.5c2.3,5.5,3.8,11.3,6,18.1
	c-6-4.4-11.3-8-16.4-11.9c-2.4-1.9-4.1-2.2-6.7-0.1c-5.1,4-10.5,7.7-16.6,12.1c2.4-7.5,4.4-13.9,6.6-20.3c0.8-2.3,0.4-3.5-1.5-4.9
	c-5.5-3.8-10.8-7.8-16.1-12.7C26.8,244,32.1,244,37.4,244z"/>
<path class="st0" d="M286.4,448.1c-5.4,3.9-10.7,7.9-16.2,11.7c-2,1.4-2.3,2.6-1.5,4.8c2.3,6.4,4.2,12.8,6.6,20.4
	c-6.2-4.5-11.6-8.2-16.7-12.2c-2.4-1.8-4-1.8-6.4,0.1c-5.1,4-10.5,7.7-16.6,12.1c2-6.1,3.6-11.3,5.3-16.4c2.3-7,2.3-7-3.8-11.3
	c-4.2-3-8.4-6.1-12.6-9.9c5.9,0,11.8-0.3,17.7,0.1c4.5,0.3,6.5-1.1,7.5-5.5c1.4-5.7,3.6-11.3,5.8-18.1c2.4,7.4,4.6,13.6,6.4,20
	c0.8,2.8,2.2,3.6,5,3.5c6.5-0.2,12.9-0.1,19.4-0.1C286.3,447.6,286.3,447.8,286.4,448.1z"/>
<path class="st0" d="M337.1,106c2.4-7.4,4.3-13.8,6.6-20.2c0.9-2.4,0.5-3.7-1.6-5.1c-5.4-3.7-10.7-7.7-15.7-12.4
	c6.1,0,12.2-0.3,18.2,0.1c3.9,0.3,5.4-1.2,6.4-4.8c1.6-6,3.8-11.9,6-18.8c2.4,7.3,4.6,13.6,6.5,20.1c0.8,2.6,1.9,3.5,4.6,3.4
	c6.5-0.2,13-0.1,19.8,0.7c-4.8,3.5-9.4,7.2-14.4,10.3c-3.6,2.3-4.3,4.5-2.7,8.5c2.2,5.5,3.8,11.3,4.9,17.3c-4.2-3-8.4-6.1-12.6-9.1
	c-6.2-4.6-6.2-4.6-12.6,0.1C346.4,99.3,342.2,102.3,337.1,106z"/>
<path class="st0" d="M155.2,92.9c-1.4-1.9-2.5-0.3-3.6,0.4c-5.6,4-11.2,8.1-17.5,12.7c2.4-7.3,4.3-13.8,6.6-20.2
	c0.8-2.4,0.5-3.7-1.6-5.1c-5.4-3.7-10.7-7.7-15.8-12.4c6.6,0,13.1-0.1,19.7,0.1c2.5,0.1,3.6-0.7,4.4-3.2c1.9-6.6,4.2-13.1,6.6-20.3
	c2.3,7.1,4.6,13.5,6.5,20c0.8,2.8,2.2,3.6,4.9,3.5c4.7-0.3,9.4-0.2,14.1-0.2c1.7,0.1,3.4,0.2,6.1,0.4c-3.2,2.4-5.8,4.4-8.5,6.3
	c-2.8,2.1-5.6,4.3-8.6,6.1c-2,1.2-2.1,2.5-1.4,4.5c2.2,6.4,4.2,12.8,6.7,20.3C166.9,101,161,97,155.2,92.9z"/>
</svg>
