<?xml version="1.0" encoding="utf-8"?>
<!-- Generator: Adobe Illustrator 22.0.1, SVG Export Plug-In . SVG Version: 6.00 Build 0)  -->
<svg version="1.1" id="Layer_1" xmlns="http://www.w3.org/2000/svg" xmlns:xlink="http://www.w3.org/1999/xlink" x="0px" y="0px"
	 viewBox="0 0 512 512" style="enable-background:new 0 0 512 512;" xml:space="preserve">
<style type="text/css">
	.st0{fill:#C6E9FA;}
	.st1{fill:#F15D5E;}
	.st2{fill:#D32F2F;}
</style>
<g>
	<g>
		<path class="st0" d="M487.6,21.9c-3.9-3.9-10.3-3.9-14.2,0l-66.3,66.3c-8.4-5.7-18.5-9-29.4-9c-13.9,0-27.4,5.6-37.2,15.4
			l-47.7,47.7c-3.9,3.9-3.9,10.3,0,14.2l3.5,3.5L177.1,299.9h-30.4c-46.2,0-89.6,18-122.3,50.7C14.5,360.5,9,373.7,9,387.7
			c0,29,23.6,52.6,52.6,52.6h7.6v7.6c0,29,23.6,52.6,52.6,52.6c13.9,0,27.4-5.6,37.2-15.4c32.7-32.7,50.7-76.1,50.7-122.3v-30.4
			l139.9-119.2l3.5,3.5c2,2,4.5,2.9,7.1,2.9s5.1-1,7.1-2.9l47.7-47.7c9.9-9.9,15.4-23.1,15.4-37.2c0-10.9-3.3-21-9-29.4l66.3-66.3
			C491.5,32.2,491.5,25.9,487.6,21.9z"/>
	</g>
	<g>
		<path class="st1" d="M61.6,420.3c-17.9,0-32.5-14.6-32.5-32.5c0-8.7,3.4-16.9,9.5-23c28.9-28.9,67.3-44.8,108.1-44.8H160
			L74.6,420.3H61.6z"/>
	</g>
	<path id="SVGCleanerId_0" class="st2" d="M189.6,362.8c0,40.8-15.9,79.2-44.8,108.1c-6.1,6.1-14.4,9.5-23,9.5
		c-17.9,0-32.5-14.6-32.5-32.5v-13l100.3-85.5V362.8z"/>
	<g>
		<g id="SVGCleanerId_0_1_">
			<path class="st1" d="M189.6,362.8c0,40.8-15.9,79.2-44.8,108.1c-6.1,6.1-14.4,9.5-23,9.5c-17.9,0-32.5-14.6-32.5-32.5v-13
				l100.3-85.5V362.8z"/>
		</g>
	</g>
	<g>
		<path class="st1" d="M154.8,440.8c-6.1,6.1-14.4,9.5-23,9.5c-15.3,0-28-10.6-31.5-24.8l-11,9.4v13c0,17.9,14.6,32.5,32.5,32.5
			c8.6,0,16.9-3.5,23-9.5c20.9-20.9,35-46.9,41.1-75.2C178.4,412.3,168,427.6,154.8,440.8z"/>
	</g>
	<g>
		<polygon class="st1" points="168.2,341.3 310.5,174.2 335.3,199 		"/>
	</g>
	<g>
		<path class="st0" d="M400.7,154.8l-40.6,40.6l-2.9-2.9L317,152.3l-2.9-2.9l40.6-40.6c6.1-6.1,14.4-9.5,23-9.5
			c17.9,0,32.5,14.6,32.5,32.5C410.3,140.5,406.9,148.6,400.7,154.8z"/>
	</g>
	<g>
		<polygon class="st1" points="335.3,199 322.9,186.6 168.2,341.3 		"/>
	</g>
	<g>
		<path class="st0" d="M337.1,172.4l20.1,20.1l2.9,2.9l40.6-40.6c6.1-6.1,9.5-14.3,9.5-23c0-9-3.6-17.1-9.5-23L337.1,172.4z"/>
	</g>
</g>
</svg>
