<?xml version="1.0" encoding="utf-8"?>
<!-- Generator: Adobe Illustrator 22.0.1, SVG Export Plug-In . SVG Version: 6.00 Build 0)  -->
<svg version="1.1" id="Layer_1" xmlns="http://www.w3.org/2000/svg" xmlns:xlink="http://www.w3.org/1999/xlink" x="0px" y="0px"
	 viewBox="0 0 67.2 86" style="enable-background:new 0 0 67.2 86;" xml:space="preserve">
<style type="text/css">
	.st0{fill:#FFFFFF;}
	.st1{fill:#F15D5E;}
	.st2{fill:#C6E9FA;}
</style>
<g>
	<g>
		<path d="M322.3,32.8c1.9,0,1.9-3,0-3C320.4,29.8,320.4,32.8,322.3,32.8L322.3,32.8z"/>
	</g>
</g>
<g>
	<path class="st0" d="M39.6,11.6c0-0.4,0.1-2.5,0-3c-0.1-0.6-0.5-1-0.7-1.1H25.7C25.5,7.6,25.1,8,25,8.6c-0.1,0.5,0,2.7,0,3H39.6z"
		/>
</g>
<g>
	<path class="st0" d="M39.3,11.7H25.2c0.1,0.1,0.2,0.2,0.3,0.3h13.5C39.2,11.9,39.2,11.8,39.3,11.7z"/>
</g>
<g>
	<path class="st1" d="M38.8,3c0-0.8-1.1-2-1.9-2h-9.3c-0.9,0-1.9,1.2-1.9,2v4.4h13.1V3z"/>
</g>
<g>
	<path class="st2" d="M56.7,48.1c-3.1-17-15.6-22.9-16.2-24.1c-0.1-0.2-0.2-1.1-0.5-1.3H24.7c-0.4,0.2-0.5,1.1-0.5,1.3
		c-0.7,1.2-13.1,7.1-16.2,24.1c-4.1,22,8.5,32,8.9,32.4c0.4,0.4,1,0.3,0.7,1.3c-0.3,0.9,0.2,2.7,1.5,3.2c1.9,0.7,24.7,0.7,26.6,0
		c1.3-0.5,1.8-2.3,1.5-3.2c-0.3-0.9,0.3-0.9,0.7-1.3C48.2,80.2,60.7,70.1,56.7,48.1z"/>
</g>
<g>
	<path class="st0" d="M39.3,21.4h-14c-0.4,0.2-0.4,0.9-0.4,1.2h14.9C39.7,22.3,39.7,21.6,39.3,21.4z"/>
</g>
<g>
	<path class="st2" d="M25.6,12.1c0,0.7-0.2,8-0.2,9.2h13.7c0-1.2-0.2-8.5-0.2-9.2H25.6z"/>
</g>
</svg>
