<?xml version="1.0" encoding="utf-8"?>
<!-- Generator: Adobe Illustrator 22.0.1, SVG Export Plug-In . SVG Version: 6.00 Build 0)  -->
<svg version="1.1" id="Layer_1" xmlns="http://www.w3.org/2000/svg" xmlns:xlink="http://www.w3.org/1999/xlink" x="0px" y="0px"
	 viewBox="0 0 67.2 86" style="enable-background:new 0 0 67.2 86;" xml:space="preserve">
<style type="text/css">
	.st0{fill:none;}
	.st1{fill:#F15D5E;}
	.st2{fill:#FFFFFF;}
</style>
<g>
	<g>
		<path d="M322.3,32.8c1.9,0,1.9-3,0-3C320.4,29.8,320.4,32.8,322.3,32.8L322.3,32.8z"/>
	</g>
</g>
<path class="st0" d="M32.6,22.5c-11.3,0-20.5,9.2-20.5,20.5c0,11.3,9.2,20.5,20.5,20.5c11.3,0,20.5-9.2,20.5-20.5
	C53.1,31.7,43.9,22.5,32.6,22.5z M38.1,57.6l-8-13.9V27.6h5.1v14.7L42.5,55L38.1,57.6z"/>
<g>
	<polygon class="st1" points="34.3,27.6 29.2,27.6 29.2,43.7 37.2,57.6 41.7,55 34.3,42.3 	"/>
</g>
<path class="st2" d="M57.8,37.9c-1.3-6.2-4.8-11.6-9.7-15.3V2H17.3v20.6C11.1,27.3,7,34.6,7,43c0,8.4,4.1,15.7,10.3,20.4V84H48V63.4
	c4.9-3.7,8.5-9,9.7-15.3h5.6V37.9H57.8z M32.6,63.5c-11.3,0-20.5-9.2-20.5-20.5c0-11.3,9.2-20.5,20.5-20.5
	c11.3,0,20.5,9.2,20.5,20.5C53.1,54.3,43.9,63.5,32.6,63.5z"/>
</svg>
