<?xml version="1.0" encoding="utf-8"?>
<!-- Generator: Adobe Illustrator 22.0.1, SVG Export Plug-In . SVG Version: 6.00 Build 0)  -->
<svg version="1.1" id="Layer_1" xmlns="http://www.w3.org/2000/svg" xmlns:xlink="http://www.w3.org/1999/xlink" x="0px" y="0px"
	 viewBox="0 0 512 512" style="enable-background:new 0 0 512 512;" xml:space="preserve">
<style type="text/css">
	.st0{fill:#F15D5E;}
	.st1{fill:#FFFFFF;}
	.st2{fill:#302F7E;}
	.st3{fill:#C6E9FA;}
	.st4{fill:#2B3236;}
</style>
<g>
	<path class="st0" d="M439,192.3H65v-39.5c0-10.1,8.2-18.3,18.3-18.3h337.5c10.1,0,18.3,8.2,18.3,18.3V192.3z"/>
</g>
<g>
	<path class="st1" d="M424.1,154H79.8c-24,0-43.5,19.5-43.5,43.5v99.8c0,24,19.5,43.5,43.5,43.5h129.1c10,0,18.7-6.6,21.5-16.2l0,0
		c2.7-9.6,11.5-16.2,21.5-16.2h0.3c10,0,18.7,6.6,21.5,16.2l0,0c2.7,9.6,11.5,16.2,21.5,16.2h129.1c24,0,43.5-19.5,43.5-43.5v-99.8
		C467.6,173.5,448.2,154,424.1,154z"/>
</g>
<g>
	<path class="st2" d="M321.5,311.8c-11.5,0-22.5-5-29.9-13.8c-9.6-11.5-24-18.6-39.5-18.6h-0.3c-15.6,0-29.9,7.1-39.5,18.6
		c-7.4,8.8-18.4,13.8-29.9,13.8H79.8c-7.9,0-14.4-6.4-14.4-14.4v-99.8c0-7.9,6.4-14.4,14.4-14.4h344.3c7.9,0,14.4,6.4,14.4,14.4
		v99.8c0,7.9-6.4,14.4-14.4,14.4H321.5z"/>
</g>
<g>
	<path class="st0" d="M36.3,292.2H26.2C16.7,292.2,9,284.5,9,275v-55c0-9.5,7.7-17.2,17.2-17.2h10.2V292.2z"/>
</g>
<g>
	<path class="st0" d="M467.6,292.2h10.2c9.5,0,17.2-7.7,17.2-17.2v-55c0-9.5-7.7-17.2-17.2-17.2h-10.2V292.2z"/>
</g>
<g>
	<path class="st3" d="M147.6,297.3c-28.6,0-51.9-23.3-51.9-51.9c0-28.6,23.3-51.9,51.9-51.9c28.6,0,51.9,23.3,51.9,51.9
		C199.5,274.1,176.2,297.3,147.6,297.3z"/>
</g>
<circle class="st4" cx="147.6" cy="245.5" r="30.3"/>
<g>
	<path class="st3" d="M147.6,266.1c-11.4,0-20.6-9.2-20.6-20.6c0-11.4,9.2-20.6,20.6-20.6c11.4,0,20.6,9.2,20.6,20.6
		C168.3,256.9,159,266.1,147.6,266.1z"/>
</g>
<g>
	<path class="st3" d="M356.3,297.3c-28.6,0-51.9-23.3-51.9-51.9c0-28.6,23.3-51.9,51.9-51.9c28.6,0,51.9,23.3,51.9,51.9
		C408.2,274.1,384.9,297.3,356.3,297.3z"/>
</g>
<circle class="st4" cx="356.3" cy="245.5" r="30.3"/>
<g>
	<path class="st3" d="M356.3,266.1c-11.4,0-20.6-9.2-20.6-20.6c0-11.4,9.2-20.6,20.6-20.6c11.4,0,20.6,9.2,20.6,20.6
		C376.9,256.9,367.7,266.1,356.3,266.1z"/>
</g>
</svg>
