<?xml version="1.0" encoding="utf-8"?>
<!-- Generator: Adobe Illustrator 22.0.1, SVG Export Plug-In . SVG Version: 6.00 Build 0)  -->
<svg version="1.1" id="Layer_1" xmlns="http://www.w3.org/2000/svg" xmlns:xlink="http://www.w3.org/1999/xlink" x="0px" y="0px"
	 viewBox="0 0 512 512" style="enable-background:new 0 0 512 512;" xml:space="preserve">
<style type="text/css">
	.st0{fill:#EFEFEF;}
	.st1{fill:#FFFFFF;}
	.st2{fill:#C6E9FA;}
	.st3{fill:#F0484A;}
	.st4{fill:#E33D41;}
</style>
<g>
	<path class="st0" d="M406.1,398.1c-19.8,0-35.9-16.1-35.9-35.9c0-19.8,16.1-35.9,35.9-35.9v-14.7H170.6l-32.7,12.7l-17.2,37.9
		l5.9,27.7l27.8,21h234.9L406.1,398.1z"/>
</g>
<g>
	<path class="st1" d="M171,311l-32.3-130.7L171,49.6h210.8c6.4,0,12.3,2.5,16.8,7c4.5,4.5,7,10.5,7,16.8V311H171z"/>
	<g>
		<path class="st1" d="M381.8,50.1c6.2,0,12.1,2.4,16.5,6.8c4.4,4.4,6.8,10.2,6.8,16.5v237.1H171.4l-32.2-130.2l32.2-130.2H381.8
			 M381.8,49.1H170.6l-32.4,131.2l32.4,131.2h235.5V73.4C406.1,60,395.2,49.1,381.8,49.1L381.8,49.1z"/>
	</g>
</g>
<g>
	<polygon class="st2" points="326,149.4 303.1,149.4 303.1,124.2 273.6,124.2 273.6,149.4 250.7,149.4 250.7,178.8 273.6,178.8 
		273.6,232.6 303.1,232.6 303.1,178.8 326,178.8 	"/>
</g>
<g>
	<path class="st2" d="M129.5,49.1c-13.4,0-24.3,10.9-24.3,24.3v288.8l65.4-65.4V49.1H129.5z"/>
</g>
<g>
	<path class="st1" d="M170.6,427c-35.8,0-64.9-29.1-64.9-64.9s29.1-64.9,64.9-64.9h235.5c7.8,0,14.2,6.4,14.2,14.2
		s-6.4,14.2-14.2,14.2H170.6c-20.1,0-36.4,16.3-36.4,36.4s16.3,36.4,36.4,36.4h235.5c7.8,0,14.2,6.4,14.2,14.2
		c0,7.8-6.4,14.2-14.2,14.2H170.6z"/>
	<g>
		<path class="st1" d="M406.1,297.7c7.6,0,13.7,6.2,13.7,13.7c0,7.6-6.2,13.7-13.7,13.7H170.6c-20.4,0-36.9,16.6-36.9,36.9
			c0,20.4,16.6,36.9,36.9,36.9h235.5c7.6,0,13.7,6.2,13.7,13.7c0,7.6-6.2,13.7-13.7,13.7H170.6c-35.5,0-64.4-28.9-64.4-64.4
			c0-35.5,28.9-64.4,64.4-64.4H406.1 M406.1,296.7H170.6c-36.1,0-65.4,29.3-65.4,65.4s29.3,65.4,65.4,65.4h235.5
			c8.1,0,14.7-6.6,14.7-14.7s-6.6-14.7-14.7-14.7H170.6c-19.8,0-35.9-16.1-35.9-35.9c0-19.8,16.1-35.9,35.9-35.9h235.5
			c8.1,0,14.7-6.6,14.7-14.7C420.8,303.3,414.2,296.7,406.1,296.7L406.1,296.7z"/>
	</g>
</g>
<path class="st3" d="M170.6,362.1V452c0,4.6,5.2,7.2,8.9,4.4l21.1-15.9l21.1,15.9c3.7,2.8,8.9,0.1,8.9-4.4v-89.9H170.6z"/>
<rect x="170.6" y="362.1" class="st4" width="60" height="25.3"/>
</svg>
