<?xml version="1.0" encoding="utf-8"?>
<!-- Generator: Adobe Illustrator 22.0.1, SVG Export Plug-In . SVG Version: 6.00 Build 0)  -->
<svg version="1.1" id="Layer_1" xmlns="http://www.w3.org/2000/svg" xmlns:xlink="http://www.w3.org/1999/xlink" x="0px" y="0px"
	 viewBox="0 0 512 512" style="enable-background:new 0 0 512 512;" xml:space="preserve">
<style type="text/css">
	.st0{fill:none;stroke:#FFFFFF;stroke-miterlimit:10;}
	.st1{fill:#FFFFFF;}
	.st2{fill:#F15D5E;}
	.st3{fill:#C6E9FA;}
</style>
<line class="st0" x1="10.9" y1="277.3" x2="101.2" y2="114.5"/>
<line class="st0" x1="191.4" y1="277.3" x2="101.2" y2="114.5"/>
<g>
	<path class="st1" d="M176.4,277.3H9.7c0,26.8,36.6,48.7,83.4,51c2.7,0.1,5.4,0.2,8.1,0.2c50.5,0,91.5-22.9,91.5-51.2H176.4z"/>
</g>
<line class="st0" x1="495.9" y1="277.3" x2="405.6" y2="114.5"/>
<line class="st0" x1="315.3" y1="277.3" x2="405.6" y2="114.5"/>
<g>
	<path class="st1" d="M480.8,277.3H314.1c0,26.8,36.6,48.7,83.4,51c2.7,0.1,5.4,0.2,8.1,0.2c50.5,0,91.5-22.9,91.5-51.2H480.8z"/>
</g>
<g>
	<path class="st2" d="M420.5,119.9l-4.5-7.3c-25.5,11.3-111.5,7.9-149.4-0.5l-0.7-12.9c-0.2-3.3-1.7-6.3-3.9-8.4
		c-2.3-2.1-5.3-3.4-8.6-3.4c-2.2,0-4.3,0.6-6.1,1.6c-3.6,2-6.2,5.8-6.4,10.3l-0.7,12.9c-37.9,8.3-123.9,11.8-149.4,0.5l-4.5,7.3
		c0,0,56.7,25.6,153.2,3.5l-15.7,271.3l-1.9,32.7h50.8h12.2l-17.6-304C363.8,145.5,420.5,119.9,420.5,119.9z"/>
</g>
<g>
	<path class="st3" d="M292.6,401.4h-8.1h-70.2c-4.1,0-7.4,3.3-7.4,7.4v1.5c0,4.1,3.3,7.4,7.4,7.4h78.4c4.1,0,7.4-3.3,7.4-7.4v-0.8
		v-0.8C299.9,404.7,296.6,401.4,292.6,401.4z"/>
</g>
<g>
	<path class="st1" d="M310.7,409.5h-8.1H196.1c-6.5,0-11.8,5.3-11.8,11.8v2.4c0,6.5,5.3,11.8,11.8,11.8h106.5h8.1
		c6.5,0,11.8-5.3,11.8-11.8v-2.4C322.5,414.8,317.2,409.5,310.7,409.5z"/>
</g>
<g>
	<circle class="st1" cx="90" cy="110.6" r="10.3"/>
</g>
<g>
	<circle class="st1" cx="416.7" cy="110.6" r="10.3"/>
</g>
</svg>
