<?xml version="1.0" encoding="utf-8"?>
<!-- Generator: Adobe Illustrator 22.0.1, SVG Export Plug-In . SVG Version: 6.00 Build 0)  -->
<svg version="1.1" id="Layer_1" xmlns="http://www.w3.org/2000/svg" xmlns:xlink="http://www.w3.org/1999/xlink" x="0px" y="0px"
	 viewBox="0 0 512 512" style="enable-background:new 0 0 512 512;" xml:space="preserve">
<style type="text/css">
	.st0{fill:#F15D5E;}
	.st1{fill:#FFFFFF;}
	.st2{fill:#C6E9FA;}
</style>
<g>
	<path class="st0" d="M369.4,42.9c27.3-27.3,71.6-27.3,98.9,0c27.3,27.3,27.3,71.6,0,98.9L369.4,42.9z"/>
</g>
<g>
	<polygon class="st1" points="394.1,178.8 167.6,405.4 162.9,447.1 412.6,197.4 412.6,197.4 	"/>
</g>
<g>
	<polygon class="st1" points="113.5,397.6 155.2,393 381.7,166.5 344.7,129.4 118.1,355.9 	"/>
</g>
<g>
	<polygon class="st1" points="332.3,117 313.7,98.5 313.7,98.5 64,348.2 105.8,343.6 	"/>
</g>
<g>
	<polygon class="st1" points="449.7,160.3 449.7,160.3 468.3,141.8 369.4,42.9 350.8,61.4 350.8,61.4 	"/>
</g>
<g>
	<polygon class="st1" points="338.5,73.8 338.5,73.8 326.1,86.1 326.1,86.1 425,185 425,185 437.4,172.7 437.4,172.7 	"/>
</g>
<g>
	<path class="st2" d="M149.3,411.3l-44.8,5c-0.3,0-0.6,0.1-1,0.1h0h0l0,0c0,0,0,0,0,0c-0.3,0-0.6,0-1-0.1c-0.3,0-0.6-0.2-0.9-0.3
		c-0.6-0.1-1.2-0.3-1.8-0.6c-0.4-0.2-0.8-0.5-1.2-0.7c-0.5-0.3-1-0.7-1.4-1.2c-0.3-0.3-0.6-0.7-0.9-1.1c-0.3-0.5-0.6-1-0.8-1.6
		c-0.2-0.5-0.3-0.9-0.4-1.4c-0.1-0.3-0.2-0.5-0.2-0.8c0-0.3,0.1-0.6,0.1-1c0-0.3-0.1-0.6-0.1-1l5-44.8l-44.8,5c-0.3,0-0.7,0.1-1,0.1
		c-0.7,0-1.3-0.2-2-0.4L27.1,471.7l18.4-18.4c3.4-3.4,8.9-3.4,12.4,0c3.4,3.4,3.4,8.9,0,12.4L39.5,484l105.2-25
		c-0.2-1-0.4-1.9-0.3-3L149.3,411.3z"/>
</g>
<g>
	<path class="st1" d="M57.9,453.3c-3.4-3.4-8.9-3.4-12.4,0l-18.4,18.4l-3.9,16.2l16.2-3.9l18.4-18.4
		C61.3,462.2,61.3,456.7,57.9,453.3z"/>
</g>
<g>
	<polygon class="st2" points="449.7,160.3 350.8,61.4 350.8,61.4 338.5,73.8 338.5,73.8 437.4,172.7 437.4,172.7 	"/>
</g>
<g>
	<path class="st0" d="M381.7,166.5L155.2,393l-41.7,4.6l4.6-41.7l226.5-226.5L332.3,117L105.8,343.6L64,348.2l-9.9,9.9l-2,8.4
		c0.7,0.2,1.3,0.4,2,0.4c0.3,0,0.6,0,1-0.1l44.8-5l-5,44.8c0,0.3,0.1,0.6,0.1,1c0,0.3-0.1,0.6-0.1,1c0,0.3,0.2,0.5,0.2,0.8
		c0.1,0.5,0.3,1,0.4,1.4c0.2,0.6,0.5,1.1,0.8,1.6c0.3,0.4,0.6,0.8,0.9,1.1c0.4,0.4,0.9,0.8,1.4,1.2c0.4,0.3,0.8,0.5,1.2,0.7
		c0.6,0.3,1.2,0.4,1.8,0.6c0.3,0.1,0.6,0.3,0.9,0.3c0.3,0,0.6,0.1,1,0.1h0l0,0h0h0h0l0,0c0.3,0,0.6,0,1-0.1l44.8-5l-5,44.8
		c-0.1,1,0,2,0.3,3l8.4-2l9.9-9.9l4.6-41.7l226.5-226.5L381.7,166.5z"/>
</g>
<g>
	<polygon class="st2" points="425,185 326.1,86.1 326.1,86.1 313.7,98.5 313.7,98.5 332.3,117 344.7,129.4 381.7,166.5 394.1,178.8 
		412.6,197.4 412.6,197.4 	"/>
</g>
</svg>
