<?xml version="1.0" encoding="utf-8"?>
<!-- Generator: Adobe Illustrator 22.0.1, SVG Export Plug-In . SVG Version: 6.00 Build 0)  -->
<svg version="1.1" id="Layer_1" xmlns="http://www.w3.org/2000/svg" xmlns:xlink="http://www.w3.org/1999/xlink" x="0px" y="0px"
	 viewBox="0 0 262 262" style="enable-background:new 0 0 262 262;" xml:space="preserve">
<style type="text/css">
	.st0{fill:#302F7E;}
	.st1{fill:#B7B7B7;}
	.st2{fill:#FFFFFF;stroke:#000000;stroke-width:3;stroke-miterlimit:10;}
	.st3{fill:#F15D5E;}
	.st4{fill:none;stroke:#000000;stroke-width:3;stroke-miterlimit:10;}
	.st5{fill:#C6E9FA;}
	.st6{stroke:#302F7E;stroke-width:3;stroke-miterlimit:10;}
	.st7{fill:#FFFFFF;}
</style>
<g>
	<g>
		<circle class="st0" cx="131.4" cy="131.5" r="130.5"/>
	</g>
	<g>
		<path class="st1" d="M131.4,260.5c-23.7,0-46.9-6.5-67-18.8c6.6-22.1,22.5-36.9,39.8-36.9h55c17.3,0,33.1,14.6,39.7,36.6
			C178.7,253.9,155.4,260.5,131.4,260.5z"/>
		<g>
			<path d="M159.2,206.3c16.3,0,31.3,13.7,38,34.4c-19.8,11.9-42.5,18.2-65.7,18.2c-23,0-45.6-6.2-65.2-17.9
				c6.6-20.8,21.6-34.7,38-34.7H159.2 M159.2,203.3h-55c-18.9,0-35.2,16.3-41.6,39.1c20,12.4,43.5,19.6,68.8,19.6
				c25.5,0,49.2-7.3,69.3-19.9C194.3,219.5,178.1,203.3,159.2,203.3L159.2,203.3z"/>
		</g>
	</g>
	<path class="st2" d="M149.1,172.5h-33.6c-4.6,0-8.3,6.2-8.3,13.8v17.4h50.1v-17.4C157.4,178.6,153.7,172.5,149.1,172.5z"/>
	<path class="st2" d="M131.3,176.5L131.3,176.5c-27.8,0-50.6-22.7-50.6-50.6V86.2c0-27.8,22.7-31,50.6-31h0c27.8,0,50.6,3.2,50.6,31
		V126C181.8,153.8,159.1,176.5,131.3,176.5z"/>
	<path class="st2" d="M96.6,83.6c0,0,1.5-5.7,10.5-8.5s13.5,1,13.5,1"/>
	<path class="st2" d="M165.9,83.6c0,0-1.5-5.7-10.5-8.5c-9-2.8-13.5,1-13.5,1"/>
	<path class="st2" d="M131.6,89.8"/>
	<polyline class="st2" points="131.6,95 136.7,123.4 128.3,127.7 	"/>
	<g>
		<g>
			<path class="st3" d="M111.7,145c-3.9,0-7.3-1.1-9.4-3.1c-0.7-0.7-1.3-1.7-1.5-2.7c0.2,0.7,0.6,1.4,1.2,1.9
				c0.8,0.8,1.9,1.3,3.5,1.8c0.5,0.2,1,0.2,1.5,0.2c0.3,0,0.6,0,0.9-0.1c5.3-1.1,9.8-5.6,11-6.9c1.8-1.9,3.6-3.6,5.8-3.6
				c0.4,0,0.9,0.1,1.4,0.2c0.8,0.2,3.2,1.1,2.5,3.9c-0.6,2.5-3.9,4.6-6.3,5.9C119.3,144,115.4,145,111.7,145
				C111.7,145,111.7,145,111.7,145z"/>
			<path d="M124.6,133.9c0.3,0,0.6,0.1,1,0.1c1.9,0.5,1.6,1.7,1.5,2.1c-0.5,2.2-4.3,4.3-5.6,4.9c-2.7,1.5-6.4,2.4-9.8,2.4
				c-0.2,0-0.4,0-0.6,0c4.3-1.9,7.7-5.2,8.8-6.4C121.7,135.1,123.1,133.9,124.6,133.9 M124.6,130.9c-2.8,0-4.9,2-6.9,4.1
				c-2.4,2.6-6.3,5.6-10.2,6.5c-0.2,0-0.4,0.1-0.6,0.1c-0.4,0-0.7-0.1-1.1-0.2c-1.1-0.3-2.1-0.8-2.9-1.4c-1-0.9-1.3-2.9-0.2-3.9
				c0.4-0.4,1-0.6,1.6-0.6c0.6,0,1.2,0.2,1.6,0.4c0.6,0.4,0.6,0.6,0.7,0.6c0,0,0.1,0,0.1-0.1c0.3-0.2,0.4-0.9,0-1.3l-0.7-0.7
				c-0.3-0.3-1.2-0.5-2.3-0.5c-1.4,0-3.2,0.4-4,1.6c-1.6,2.2-0.4,5.7,1.4,7.4c2.7,2.5,6.5,3.5,10.4,3.5c4.1,0,8.2-1.1,11.2-2.7
				c2.6-1.4,6.3-3.7,7-6.9c0.7-2.8-0.9-5-3.6-5.7C125.7,131,125.1,130.9,124.6,130.9L124.6,130.9z"/>
		</g>
		<g>
			<path class="st3" d="M150.9,145c-3.7,0-7.6-1-10.5-2.5c-2.4-1.3-5.7-3.3-6.3-5.9c-0.7-2.8,1.8-3.7,2.5-3.9c0.5-0.1,1-0.2,1.4-0.2
				c2.2,0,4,1.7,5.8,3.6c1.2,1.3,5.7,5.8,11,6.9c0.3,0.1,0.6,0.1,0.9,0.1c0.5,0,1-0.1,1.5-0.2c1.5-0.4,2.6-1,3.5-1.8
				c0.5-0.5,0.9-1.2,1.2-1.9c-0.2,1-0.8,2.1-1.5,2.7C158.1,143.9,154.8,145,150.9,145z"/>
			<path d="M138,133.9c1.5,0,2.8,1.2,4.7,3.1c1.1,1.2,4.5,4.6,8.8,6.4c-0.2,0-0.4,0-0.6,0c-3.4,0-7.1-0.9-9.8-2.4
				c-1.2-0.7-5-2.7-5.6-4.9c-0.1-0.4-0.4-1.6,1.5-2.1C137.4,134,137.7,133.9,138,133.9 M138,130.9c-0.6,0-1.2,0.1-1.8,0.3
				c-2.7,0.8-4.3,2.9-3.6,5.7c0.8,3.2,4.4,5.4,7,6.9c3,1.7,7.2,2.7,11.2,2.7c3.9,0,7.8-1,10.4-3.5c1.8-1.7,3-5.2,1.4-7.4
				c-0.9-1.2-2.6-1.6-4-1.6c-1.1,0-2,0.2-2.3,0.5l-0.7,0.7c-0.4,0.5-0.3,1.1,0,1.3c0.1,0,0.1,0.1,0.1,0.1c0.1,0,0.1-0.2,0.7-0.6
				c0.4-0.3,1-0.4,1.6-0.4c0.6,0,1.2,0.2,1.6,0.6c1.1,1,0.8,3-0.2,3.9c-0.7,0.7-1.8,1.1-2.9,1.4c-0.3,0.1-0.7,0.2-1.1,0.2
				c-0.2,0-0.4,0-0.6-0.1c-3.9-0.8-7.8-3.9-10.2-6.5C142.9,132.9,140.8,130.9,138,130.9L138,130.9z"/>
		</g>
	</g>
	<g>
		<path class="st3" d="M81.9,119.7c-0.8-11.6-2.6-48.9,8-58.2c0.1-0.1,1.4-1.2,3.7-1.2c0.4,0,0.8,0,1.2,0.1l0.7,0.2
			c-3,5.7-11.6,24-7,35.8C92,105.5,85.6,115.2,81.9,119.7z"/>
		<g>
			<path d="M93.1,61.8c-3.6,7.4-10.5,23.9-6.1,35.1c2.6,6.7-0.7,13.8-3.9,18.6c-1-16.9-0.7-45.5,7.8-52.9l0,0l0,0
				C91,62.5,91.8,61.9,93.1,61.8 M93.6,58.8c-3,0-4.7,1.6-4.7,1.6c-13.3,11.6-8.2,63-8.2,63s14.4-14.2,9.1-27.5
				c-5.2-13.4,7.8-36.3,7.8-36.3l-2.6-0.6C94.6,58.8,94.1,58.8,93.6,58.8L93.6,58.8z"/>
		</g>
	</g>
	<g>
		<path class="st3" d="M180.6,119.7c-3.6-4.5-10.1-14.3-6.5-23.4c4.6-11.8-4-30.1-7-35.8l0.7-0.2c0.4-0.1,0.8-0.1,1.2-0.1
			c2.3,0,3.6,1.1,3.7,1.2C183.3,70.8,181.5,108.1,180.6,119.7z"/>
		<g>
			<path d="M169.4,61.8c1.3,0.1,2.1,0.7,2.2,0.8l0,0c8.5,7.4,8.7,36.1,7.8,53c-3.2-4.8-6.5-12-3.9-18.7
				C179.9,85.7,173,69.2,169.4,61.8 M168.9,58.8c-0.5,0-0.9,0-1.5,0.1l-2.6,0.6c0,0,13.1,22.9,7.8,36.3c-5.2,13.4,9.1,27.5,9.1,27.5
				s5.1-51.4-8.2-63C173.6,60.4,172,58.8,168.9,58.8L168.9,58.8z"/>
		</g>
	</g>
	<path class="st4" d="M119.5,151.7c0,0,4.9,2,11.7,2c6.8,0,11.7-2,11.7-2"/>
	<g>
		<path class="st3" d="M133.1,184.4c-0.5,0-0.9-0.1-1-0.1l-0.5-0.2l-0.5,0.2c-0.2,0.1-0.5,0.1-1.1,0.1c-8.6,0-38.1-16.3-43-35.2
			c4.1,2.5,11.5,7.4,14,11.8l-2.5,4.6l2.1,0.3c6.6,1.1,24.7,5.2,29.5,10.8l1.1,1.3l1.1-1.3c4.8-5.6,22.9-9.7,29.5-10.8l2.1-0.3
			l-2.5-4.6c2.5-4.5,9.9-9.4,14-11.9C170.6,168,141.6,184.4,133.1,184.4z"/>
		<g>
			<path d="M172.7,152.7c-1.9,4.2-4.8,8.1-7.9,11.3l-0.5-0.9l-1.1-2C165,158.3,168.9,155.2,172.7,152.7 M89.9,152.7
				c3.8,2.6,7.6,5.7,9.4,8.3l-1.1,2l-0.5,0.8C94.7,160.6,91.8,156.8,89.9,152.7 M161.1,167.6c-1.7,1.5-3.3,2.9-4.8,3.9
				c-9.2,7-19.2,11.3-23.2,11.3c-0.4,0-0.6-0.1-0.6-0.1l-0.9-0.3l-0.9,0.3c0,0-0.2,0.1-0.6,0.1c-4,0-14.2-4.3-23.6-11.3
				c-1.4-1.1-3.1-2.4-4.8-3.9c9.1,1.7,23.5,5.6,27.2,10.1l2.3,2.7l2.3-2.7C137.4,173.2,152,169.3,161.1,167.6 M177.6,146.2
				c0,0-14.7,7.8-17.8,14.8l1.9,3.5c0,0-24.2,4.1-30.4,11.3c-6.2-7.3-30.4-11.3-30.4-11.3l1.9-3.5c-3.1-7-17.8-14.8-17.8-14.8
				c2.4,21.1,35.2,39.7,45.1,39.7c0.6,0,1.1-0.1,1.5-0.2c0.4,0.1,0.9,0.2,1.5,0.2C142.9,185.9,175.2,167.3,177.6,146.2L177.6,146.2z
				"/>
		</g>
	</g>
	<g>
		<path class="st3" d="M138.3,70.4c-7.6,0-15.6-3.9-23.9-8.2c-2.4-1.3-8.5-4.2-13.5-4.2c-0.7,0-1.4,0.1-2,0.2
			c5.1-14.9,13.1-26.4,22.3-31.7c4-2.3,8.7-3.4,14.5-3.4c3.2,0,6.8,0.4,10.9,1.1c3.1,0.6,6.3,1.3,9.3,2c6,1.4,12.2,2.8,18.4,3.1
			c0.1,0,0.2,0,0.3,0c2.7,0,10-2,14.5-3.4c-0.4,0.8-0.9,1.5-1.3,2.3c-4.4,7.7-9.9,17.3-18.1,26c-7.1,7.5-19.8,14.6-28.4,15.9
			C140.3,70.3,139.3,70.4,138.3,70.4z"/>
		<g>
			<path d="M135.7,24.6c3.2,0,6.6,0.4,10.6,1.1c3.1,0.6,6.2,1.3,9.2,2c6.1,1.4,12.4,2.8,18.6,3.1c0.1,0,0.2,0,0.4,0
				c2.2,0,7.1-1.2,11.4-2.4c-4.3,7.5-9.6,16.6-17.3,24.9c-6.9,7.3-19.2,14.2-27.5,15.5c-0.9,0.1-1.8,0.2-2.8,0.2
				c-7.3,0-15.1-3.8-23.2-8c-2.5-1.3-8.7-4.3-14-4.3c5-13.5,12.4-23.8,20.9-28.7C125.7,25.6,130.2,24.6,135.7,24.6L135.7,24.6
				 M135.7,21.6c-5.4,0-10.6,1-15.2,3.6c-11.4,6.7-19.6,21.3-24.1,35.9c1.1-1.2,2.7-1.6,4.5-1.6c4.1,0,9.4,2.2,12.8,4
				c8,4.2,16.5,8.4,24.6,8.4c1.1,0,2.2-0.1,3.2-0.2c9-1.4,22.1-8.8,29.2-16.4c10.4-11.1,16.4-23.4,21.5-32c0,0-14,4.4-17.7,4.4
				c-0.1,0-0.1,0-0.2,0c-9.1-0.5-18.3-3.4-27.5-5C143.1,22,139.4,21.6,135.7,21.6L135.7,21.6z"/>
		</g>
	</g>
	<g>
		<g>
			<path class="st5" d="M96.5,221.1c-4.6-5-6.8-10-6.4-14.8c0.5-5.9,4.7-9.9,6.3-11.2l7.6,2.3v21.1L96.5,221.1z"/>
			<path d="M96.8,196.8l5.7,1.8v18.9l-5.6,1.9c-3.9-4.4-5.7-8.7-5.3-12.8C92,201.8,95.1,198.3,96.8,196.8 M96.1,193.4
				c0,0-16.8,12.1,0,29.4l9.4-3.3v-23.2L96.1,193.4L96.1,193.4z"/>
		</g>
		<g>
			<path class="st5" d="M158.6,218.5v-21.1l7.6-2.3c1.5,1.3,5.8,5.4,6.3,11.2c0.4,4.8-1.7,9.8-6.4,14.7L158.6,218.5z"/>
			<path d="M165.8,196.8c1.7,1.6,4.7,5,5.1,9.7c0.4,4.1-1.4,8.5-5.3,12.9l-5.6-1.9v-18.9L165.8,196.8 M166.5,193.4l-9.4,2.9v23.2
				l9.4,3.3C183.3,205.5,166.5,193.4,166.5,193.4L166.5,193.4z"/>
		</g>
		<g>
			<path class="st5" d="M130.1,215c-1.4,0-2.6-1.2-2.6-2.6v-7.6c0-1.4,1.2-2.6,2.6-2.6h2.5c1.4,0,2.6,1.2,2.6,2.6v7.6
				c0,1.4-1.2,2.6-2.6,2.6H130.1z"/>
			<path d="M132.5,203.8c0.6,0,1.1,0.5,1.1,1.1v7.6c0,0.6-0.5,1.1-1.1,1.1h-2.5c-0.6,0-1.1-0.5-1.1-1.1v-7.6c0-0.6,0.5-1.1,1.1-1.1
				H132.5 M132.5,200.8h-2.5c-2.2,0-4.1,1.8-4.1,4.1v7.6c0,2.2,1.8,4.1,4.1,4.1h2.5c2.2,0,4.1-1.8,4.1-4.1v-7.6
				C136.6,202.6,134.7,200.8,132.5,200.8L132.5,200.8z"/>
		</g>
		<g>
			<path class="st5" d="M154.9,221.1c-1.1,0-2.1-0.3-3-0.9l-13.8-8.9v-6.7l13.8-8.9c0.9-0.6,2-0.9,3-0.9c1.1,0,2.2,0.3,3.2,1
				l17.5,12.1l-17.5,12.1C157.1,220.7,156,221.1,154.9,221.1L154.9,221.1z"/>
			<path d="M154.9,196.3c0.8,0,1.6,0.3,2.3,0.7l15.8,10.9l-15.8,10.9c-0.7,0.5-1.5,0.7-2.3,0.7c-0.8,0-1.6-0.2-2.2-0.7l-13.1-8.4
				v-2.5v-2.5l13.1-8.4C153.3,196.5,154.1,196.3,154.9,196.3 M154.9,193.3c-1.3,0-2.7,0.4-3.8,1.1l-14.5,9.3v4.2v4.2l14.5,9.3
				c1.2,0.8,2.5,1.1,3.8,1.1c1.4,0,2.8-0.4,4-1.3l19.3-13.4l-19.3-13.4C157.7,193.7,156.3,193.3,154.9,193.3L154.9,193.3z"/>
		</g>
		<g>
			<path class="st5" d="M107.7,221.1c-1.1,0-2.2-0.3-3.2-1L87,207.9l17.5-12.1c0.9-0.7,2-1,3.2-1c1.1,0,2.1,0.3,3,0.9l13.8,8.9v6.7
				l-13.8,8.9C109.8,220.7,108.8,221.1,107.7,221.1L107.7,221.1z"/>
			<path d="M107.7,196.3c0.8,0,1.6,0.2,2.2,0.7l13.1,8.4v2.5v2.5l-13.1,8.4c-0.7,0.4-1.4,0.7-2.2,0.7c-0.8,0-1.6-0.3-2.3-0.7
				l-15.8-10.9l15.8-10.9C106,196.6,106.8,196.3,107.7,196.3 M107.7,193.3c-1.4,0-2.8,0.4-4,1.3l-19.3,13.4l19.3,13.4
				c1.2,0.8,2.6,1.3,4,1.3c1.3,0,2.7-0.4,3.8-1.1l14.5-9.3v-4.2v-4.2l-14.5-9.3C110.4,193.7,109,193.3,107.7,193.3L107.7,193.3z"/>
		</g>
	</g>
	<g>
		<circle class="st6" cx="153.9" cy="94.8" r="4.2"/>
		<g>
			<circle class="st7" cx="153.9" cy="94.8" r="1.1"/>
		</g>
	</g>
	<circle class="st6" cx="111.8" cy="94.8" r="4.2"/>
	<g>
		<circle class="st7" cx="111.8" cy="94.8" r="1.1"/>
	</g>
	<g>
		<circle class="st7" cx="111.8" cy="94.8" r="0.4"/>
	</g>
	<ellipse class="st4" cx="153.9" cy="94.8" rx="7.8" ry="5.2"/>
	<ellipse class="st4" cx="111.8" cy="94.8" rx="7.8" ry="5.2"/>
</g>
<g>
	<g>
		<path d="M416.3,122.8c1.9,0,1.9-3,0-3C414.4,119.8,414.4,122.8,416.3,122.8L416.3,122.8z"/>
	</g>
</g>
</svg>
